<svg xmlns="http://www.w3.org/2000/svg" xmlns:xlink="http://www.w3.org/1999/xlink" viewBox="-54.5 60.5 1294.439 1080">
  <defs>
    <style>
      .cls-1, .cls-3 {
        fill: none;
      }

      .cls-2 {
        clip-path: url(#clip-path);
      }

      .cls-3 {
        stroke: rgba(250,229,255,0.9);
      }

      .cls-4 {
        clip-path: url(#clip-path-2);
      }
    </style>
    <clipPath id="clip-path">
      <rect class="cls-1" width="1277.393" height="1080"/>
    </clipPath>
    <clipPath id="clip-path-2">
      <rect class="cls-1" width="1294.439" height="1061"/>
    </clipPath>
  </defs>
  <g id="Group_20" data-name="Group 20" transform="translate(-55 60)">
    <g id="Repeat_Grid_1" data-name="Repeat Grid 1" class="cls-2" transform="translate(17.546 0.5)">
      <g transform="translate(-16.5 -0.5)">
        <line id="Line_1" data-name="Line 1" class="cls-3" y2="1080" transform="translate(16.5 0.5)"/>
      </g>
      <g transform="translate(3.5 -0.5)">
        <line id="Line_1-2" data-name="Line 1" class="cls-3" y2="1080" transform="translate(16.5 0.5)"/>
      </g>
      <g transform="translate(23.5 -0.5)">
        <line id="Line_1-3" data-name="Line 1" class="cls-3" y2="1080" transform="translate(16.5 0.5)"/>
      </g>
      <g transform="translate(43.5 -0.5)">
        <line id="Line_1-4" data-name="Line 1" class="cls-3" y2="1080" transform="translate(16.5 0.5)"/>
      </g>
      <g transform="translate(63.5 -0.5)">
        <line id="Line_1-5" data-name="Line 1" class="cls-3" y2="1080" transform="translate(16.5 0.5)"/>
      </g>
      <g transform="translate(83.5 -0.5)">
        <line id="Line_1-6" data-name="Line 1" class="cls-3" y2="1080" transform="translate(16.5 0.5)"/>
      </g>
      <g transform="translate(103.5 -0.5)">
        <line id="Line_1-7" data-name="Line 1" class="cls-3" y2="1080" transform="translate(16.5 0.5)"/>
      </g>
      <g transform="translate(123.5 -0.5)">
        <line id="Line_1-8" data-name="Line 1" class="cls-3" y2="1080" transform="translate(16.5 0.5)"/>
      </g>
      <g transform="translate(143.5 -0.5)">
        <line id="Line_1-9" data-name="Line 1" class="cls-3" y2="1080" transform="translate(16.5 0.5)"/>
      </g>
      <g transform="translate(163.5 -0.5)">
        <line id="Line_1-10" data-name="Line 1" class="cls-3" y2="1080" transform="translate(16.5 0.5)"/>
      </g>
      <g transform="translate(183.5 -0.5)">
        <line id="Line_1-11" data-name="Line 1" class="cls-3" y2="1080" transform="translate(16.5 0.5)"/>
      </g>
      <g transform="translate(203.5 -0.5)">
        <line id="Line_1-12" data-name="Line 1" class="cls-3" y2="1080" transform="translate(16.5 0.5)"/>
      </g>
      <g transform="translate(223.5 -0.5)">
        <line id="Line_1-13" data-name="Line 1" class="cls-3" y2="1080" transform="translate(16.5 0.5)"/>
      </g>
      <g transform="translate(243.5 -0.5)">
        <line id="Line_1-14" data-name="Line 1" class="cls-3" y2="1080" transform="translate(16.5 0.5)"/>
      </g>
      <g transform="translate(263.5 -0.5)">
        <line id="Line_1-15" data-name="Line 1" class="cls-3" y2="1080" transform="translate(16.5 0.5)"/>
      </g>
      <g transform="translate(283.5 -0.5)">
        <line id="Line_1-16" data-name="Line 1" class="cls-3" y2="1080" transform="translate(16.5 0.5)"/>
      </g>
      <g transform="translate(303.5 -0.5)">
        <line id="Line_1-17" data-name="Line 1" class="cls-3" y2="1080" transform="translate(16.5 0.5)"/>
      </g>
      <g transform="translate(323.5 -0.5)">
        <line id="Line_1-18" data-name="Line 1" class="cls-3" y2="1080" transform="translate(16.5 0.5)"/>
      </g>
      <g transform="translate(343.5 -0.5)">
        <line id="Line_1-19" data-name="Line 1" class="cls-3" y2="1080" transform="translate(16.5 0.5)"/>
      </g>
      <g transform="translate(363.5 -0.5)">
        <line id="Line_1-20" data-name="Line 1" class="cls-3" y2="1080" transform="translate(16.5 0.5)"/>
      </g>
      <g transform="translate(383.5 -0.5)">
        <line id="Line_1-21" data-name="Line 1" class="cls-3" y2="1080" transform="translate(16.5 0.5)"/>
      </g>
      <g transform="translate(403.5 -0.5)">
        <line id="Line_1-22" data-name="Line 1" class="cls-3" y2="1080" transform="translate(16.5 0.5)"/>
      </g>
      <g transform="translate(423.5 -0.5)">
        <line id="Line_1-23" data-name="Line 1" class="cls-3" y2="1080" transform="translate(16.5 0.5)"/>
      </g>
      <g transform="translate(443.5 -0.5)">
        <line id="Line_1-24" data-name="Line 1" class="cls-3" y2="1080" transform="translate(16.5 0.5)"/>
      </g>
      <g transform="translate(463.5 -0.5)">
        <line id="Line_1-25" data-name="Line 1" class="cls-3" y2="1080" transform="translate(16.5 0.5)"/>
      </g>
      <g transform="translate(483.5 -0.5)">
        <line id="Line_1-26" data-name="Line 1" class="cls-3" y2="1080" transform="translate(16.5 0.5)"/>
      </g>
      <g transform="translate(503.5 -0.5)">
        <line id="Line_1-27" data-name="Line 1" class="cls-3" y2="1080" transform="translate(16.5 0.5)"/>
      </g>
      <g transform="translate(523.5 -0.5)">
        <line id="Line_1-28" data-name="Line 1" class="cls-3" y2="1080" transform="translate(16.5 0.5)"/>
      </g>
      <g transform="translate(543.5 -0.5)">
        <line id="Line_1-29" data-name="Line 1" class="cls-3" y2="1080" transform="translate(16.5 0.5)"/>
      </g>
      <g transform="translate(563.5 -0.5)">
        <line id="Line_1-30" data-name="Line 1" class="cls-3" y2="1080" transform="translate(16.5 0.5)"/>
      </g>
      <g transform="translate(583.5 -0.5)">
        <line id="Line_1-31" data-name="Line 1" class="cls-3" y2="1080" transform="translate(16.5 0.5)"/>
      </g>
      <g transform="translate(603.5 -0.5)">
        <line id="Line_1-32" data-name="Line 1" class="cls-3" y2="1080" transform="translate(16.5 0.5)"/>
      </g>
      <g transform="translate(623.5 -0.5)">
        <line id="Line_1-33" data-name="Line 1" class="cls-3" y2="1080" transform="translate(16.5 0.5)"/>
      </g>
      <g transform="translate(643.5 -0.5)">
        <line id="Line_1-34" data-name="Line 1" class="cls-3" y2="1080" transform="translate(16.5 0.5)"/>
      </g>
      <g transform="translate(663.5 -0.5)">
        <line id="Line_1-35" data-name="Line 1" class="cls-3" y2="1080" transform="translate(16.5 0.5)"/>
      </g>
      <g transform="translate(683.5 -0.5)">
        <line id="Line_1-36" data-name="Line 1" class="cls-3" y2="1080" transform="translate(16.5 0.5)"/>
      </g>
      <g transform="translate(703.5 -0.5)">
        <line id="Line_1-37" data-name="Line 1" class="cls-3" y2="1080" transform="translate(16.5 0.5)"/>
      </g>
      <g transform="translate(723.5 -0.5)">
        <line id="Line_1-38" data-name="Line 1" class="cls-3" y2="1080" transform="translate(16.5 0.5)"/>
      </g>
      <g transform="translate(743.5 -0.5)">
        <line id="Line_1-39" data-name="Line 1" class="cls-3" y2="1080" transform="translate(16.5 0.5)"/>
      </g>
      <g transform="translate(763.5 -0.5)">
        <line id="Line_1-40" data-name="Line 1" class="cls-3" y2="1080" transform="translate(16.5 0.5)"/>
      </g>
      <g transform="translate(783.5 -0.5)">
        <line id="Line_1-41" data-name="Line 1" class="cls-3" y2="1080" transform="translate(16.5 0.5)"/>
      </g>
      <g transform="translate(803.5 -0.5)">
        <line id="Line_1-42" data-name="Line 1" class="cls-3" y2="1080" transform="translate(16.5 0.5)"/>
      </g>
      <g transform="translate(823.5 -0.5)">
        <line id="Line_1-43" data-name="Line 1" class="cls-3" y2="1080" transform="translate(16.5 0.5)"/>
      </g>
      <g transform="translate(843.5 -0.5)">
        <line id="Line_1-44" data-name="Line 1" class="cls-3" y2="1080" transform="translate(16.5 0.5)"/>
      </g>
      <g transform="translate(863.5 -0.5)">
        <line id="Line_1-45" data-name="Line 1" class="cls-3" y2="1080" transform="translate(16.5 0.5)"/>
      </g>
      <g transform="translate(883.5 -0.5)">
        <line id="Line_1-46" data-name="Line 1" class="cls-3" y2="1080" transform="translate(16.5 0.5)"/>
      </g>
      <g transform="translate(903.5 -0.5)">
        <line id="Line_1-47" data-name="Line 1" class="cls-3" y2="1080" transform="translate(16.5 0.5)"/>
      </g>
      <g transform="translate(923.5 -0.5)">
        <line id="Line_1-48" data-name="Line 1" class="cls-3" y2="1080" transform="translate(16.5 0.5)"/>
      </g>
      <g transform="translate(943.5 -0.5)">
        <line id="Line_1-49" data-name="Line 1" class="cls-3" y2="1080" transform="translate(16.5 0.5)"/>
      </g>
      <g transform="translate(963.5 -0.5)">
        <line id="Line_1-50" data-name="Line 1" class="cls-3" y2="1080" transform="translate(16.5 0.5)"/>
      </g>
      <g transform="translate(983.5 -0.5)">
        <line id="Line_1-51" data-name="Line 1" class="cls-3" y2="1080" transform="translate(16.5 0.5)"/>
      </g>
      <g transform="translate(1003.5 -0.5)">
        <line id="Line_1-52" data-name="Line 1" class="cls-3" y2="1080" transform="translate(16.5 0.5)"/>
      </g>
      <g transform="translate(1023.5 -0.5)">
        <line id="Line_1-53" data-name="Line 1" class="cls-3" y2="1080" transform="translate(16.5 0.5)"/>
      </g>
      <g transform="translate(1043.5 -0.5)">
        <line id="Line_1-54" data-name="Line 1" class="cls-3" y2="1080" transform="translate(16.5 0.5)"/>
      </g>
      <g transform="translate(1063.5 -0.5)">
        <line id="Line_1-55" data-name="Line 1" class="cls-3" y2="1080" transform="translate(16.5 0.5)"/>
      </g>
      <g transform="translate(1083.5 -0.5)">
        <line id="Line_1-56" data-name="Line 1" class="cls-3" y2="1080" transform="translate(16.5 0.5)"/>
      </g>
      <g transform="translate(1103.5 -0.5)">
        <line id="Line_1-57" data-name="Line 1" class="cls-3" y2="1080" transform="translate(16.5 0.5)"/>
      </g>
      <g transform="translate(1123.5 -0.5)">
        <line id="Line_1-58" data-name="Line 1" class="cls-3" y2="1080" transform="translate(16.5 0.5)"/>
      </g>
      <g transform="translate(1143.5 -0.5)">
        <line id="Line_1-59" data-name="Line 1" class="cls-3" y2="1080" transform="translate(16.5 0.5)"/>
      </g>
      <g transform="translate(1163.5 -0.5)">
        <line id="Line_1-60" data-name="Line 1" class="cls-3" y2="1080" transform="translate(16.5 0.5)"/>
      </g>
      <g transform="translate(1183.5 -0.5)">
        <line id="Line_1-61" data-name="Line 1" class="cls-3" y2="1080" transform="translate(16.5 0.5)"/>
      </g>
      <g transform="translate(1203.5 -0.5)">
        <line id="Line_1-62" data-name="Line 1" class="cls-3" y2="1080" transform="translate(16.5 0.5)"/>
      </g>
      <g transform="translate(1223.5 -0.5)">
        <line id="Line_1-63" data-name="Line 1" class="cls-3" y2="1080" transform="translate(16.5 0.5)"/>
      </g>
      <g transform="translate(1243.5 -0.5)">
        <line id="Line_1-64" data-name="Line 1" class="cls-3" y2="1080" transform="translate(16.5 0.5)"/>
      </g>
    </g>
    <g id="Repeat_Grid_2" data-name="Repeat Grid 2" class="cls-4" transform="translate(0.5 19.5)">
      <g transform="translate(-0.5 -19.5)">
        <line id="Line_2" data-name="Line 2" class="cls-3" x2="1215" transform="translate(0.5 19.5)"/>
      </g>
      <g transform="translate(1234.5 -19.5)">
        <line id="Line_2-2" data-name="Line 2" class="cls-3" x2="1215" transform="translate(0.5 19.5)"/>
      </g>
      <g transform="translate(-0.5 0.5)">
        <line id="Line_2-3" data-name="Line 2" class="cls-3" x2="1215" transform="translate(0.5 19.5)"/>
      </g>
      <g transform="translate(1234.5 0.5)">
        <line id="Line_2-4" data-name="Line 2" class="cls-3" x2="1215" transform="translate(0.5 19.5)"/>
      </g>
      <g transform="translate(-0.5 20.5)">
        <line id="Line_2-5" data-name="Line 2" class="cls-3" x2="1215" transform="translate(0.5 19.5)"/>
      </g>
      <g transform="translate(1234.5 20.5)">
        <line id="Line_2-6" data-name="Line 2" class="cls-3" x2="1215" transform="translate(0.5 19.5)"/>
      </g>
      <g transform="translate(-0.5 40.5)">
        <line id="Line_2-7" data-name="Line 2" class="cls-3" x2="1215" transform="translate(0.5 19.5)"/>
      </g>
      <g transform="translate(1234.5 40.5)">
        <line id="Line_2-8" data-name="Line 2" class="cls-3" x2="1215" transform="translate(0.5 19.5)"/>
      </g>
      <g transform="translate(-0.5 60.5)">
        <line id="Line_2-9" data-name="Line 2" class="cls-3" x2="1215" transform="translate(0.5 19.5)"/>
      </g>
      <g transform="translate(1234.5 60.5)">
        <line id="Line_2-10" data-name="Line 2" class="cls-3" x2="1215" transform="translate(0.5 19.5)"/>
      </g>
      <g transform="translate(-0.5 80.5)">
        <line id="Line_2-11" data-name="Line 2" class="cls-3" x2="1215" transform="translate(0.5 19.5)"/>
      </g>
      <g transform="translate(1234.5 80.5)">
        <line id="Line_2-12" data-name="Line 2" class="cls-3" x2="1215" transform="translate(0.5 19.5)"/>
      </g>
      <g transform="translate(-0.5 100.5)">
        <line id="Line_2-13" data-name="Line 2" class="cls-3" x2="1215" transform="translate(0.5 19.5)"/>
      </g>
      <g transform="translate(1234.5 100.5)">
        <line id="Line_2-14" data-name="Line 2" class="cls-3" x2="1215" transform="translate(0.5 19.5)"/>
      </g>
      <g transform="translate(-0.5 120.5)">
        <line id="Line_2-15" data-name="Line 2" class="cls-3" x2="1215" transform="translate(0.5 19.5)"/>
      </g>
      <g transform="translate(1234.5 120.5)">
        <line id="Line_2-16" data-name="Line 2" class="cls-3" x2="1215" transform="translate(0.5 19.5)"/>
      </g>
      <g transform="translate(-0.5 140.5)">
        <line id="Line_2-17" data-name="Line 2" class="cls-3" x2="1215" transform="translate(0.5 19.5)"/>
      </g>
      <g transform="translate(1234.5 140.5)">
        <line id="Line_2-18" data-name="Line 2" class="cls-3" x2="1215" transform="translate(0.5 19.5)"/>
      </g>
      <g transform="translate(-0.5 160.5)">
        <line id="Line_2-19" data-name="Line 2" class="cls-3" x2="1215" transform="translate(0.5 19.5)"/>
      </g>
      <g transform="translate(1234.5 160.5)">
        <line id="Line_2-20" data-name="Line 2" class="cls-3" x2="1215" transform="translate(0.5 19.5)"/>
      </g>
      <g transform="translate(-0.5 180.5)">
        <line id="Line_2-21" data-name="Line 2" class="cls-3" x2="1215" transform="translate(0.5 19.5)"/>
      </g>
      <g transform="translate(1234.5 180.5)">
        <line id="Line_2-22" data-name="Line 2" class="cls-3" x2="1215" transform="translate(0.5 19.5)"/>
      </g>
      <g transform="translate(-0.5 200.5)">
        <line id="Line_2-23" data-name="Line 2" class="cls-3" x2="1215" transform="translate(0.5 19.5)"/>
      </g>
      <g transform="translate(1234.5 200.5)">
        <line id="Line_2-24" data-name="Line 2" class="cls-3" x2="1215" transform="translate(0.5 19.5)"/>
      </g>
      <g transform="translate(-0.5 220.5)">
        <line id="Line_2-25" data-name="Line 2" class="cls-3" x2="1215" transform="translate(0.5 19.5)"/>
      </g>
      <g transform="translate(1234.5 220.5)">
        <line id="Line_2-26" data-name="Line 2" class="cls-3" x2="1215" transform="translate(0.5 19.5)"/>
      </g>
      <g transform="translate(-0.5 240.5)">
        <line id="Line_2-27" data-name="Line 2" class="cls-3" x2="1215" transform="translate(0.5 19.5)"/>
      </g>
      <g transform="translate(1234.5 240.5)">
        <line id="Line_2-28" data-name="Line 2" class="cls-3" x2="1215" transform="translate(0.5 19.5)"/>
      </g>
      <g transform="translate(-0.5 260.5)">
        <line id="Line_2-29" data-name="Line 2" class="cls-3" x2="1215" transform="translate(0.5 19.5)"/>
      </g>
      <g transform="translate(1234.5 260.5)">
        <line id="Line_2-30" data-name="Line 2" class="cls-3" x2="1215" transform="translate(0.5 19.5)"/>
      </g>
      <g transform="translate(-0.5 280.5)">
        <line id="Line_2-31" data-name="Line 2" class="cls-3" x2="1215" transform="translate(0.5 19.5)"/>
      </g>
      <g transform="translate(1234.5 280.5)">
        <line id="Line_2-32" data-name="Line 2" class="cls-3" x2="1215" transform="translate(0.5 19.5)"/>
      </g>
      <g transform="translate(-0.5 300.5)">
        <line id="Line_2-33" data-name="Line 2" class="cls-3" x2="1215" transform="translate(0.5 19.5)"/>
      </g>
      <g transform="translate(1234.5 300.5)">
        <line id="Line_2-34" data-name="Line 2" class="cls-3" x2="1215" transform="translate(0.5 19.5)"/>
      </g>
      <g transform="translate(-0.5 320.5)">
        <line id="Line_2-35" data-name="Line 2" class="cls-3" x2="1215" transform="translate(0.5 19.5)"/>
      </g>
      <g transform="translate(1234.5 320.5)">
        <line id="Line_2-36" data-name="Line 2" class="cls-3" x2="1215" transform="translate(0.5 19.5)"/>
      </g>
      <g transform="translate(-0.5 340.5)">
        <line id="Line_2-37" data-name="Line 2" class="cls-3" x2="1215" transform="translate(0.5 19.5)"/>
      </g>
      <g transform="translate(1234.5 340.5)">
        <line id="Line_2-38" data-name="Line 2" class="cls-3" x2="1215" transform="translate(0.5 19.5)"/>
      </g>
      <g transform="translate(-0.5 360.5)">
        <line id="Line_2-39" data-name="Line 2" class="cls-3" x2="1215" transform="translate(0.5 19.5)"/>
      </g>
      <g transform="translate(1234.5 360.5)">
        <line id="Line_2-40" data-name="Line 2" class="cls-3" x2="1215" transform="translate(0.5 19.5)"/>
      </g>
      <g transform="translate(-0.5 380.5)">
        <line id="Line_2-41" data-name="Line 2" class="cls-3" x2="1215" transform="translate(0.5 19.5)"/>
      </g>
      <g transform="translate(1234.5 380.5)">
        <line id="Line_2-42" data-name="Line 2" class="cls-3" x2="1215" transform="translate(0.5 19.5)"/>
      </g>
      <g transform="translate(-0.5 400.5)">
        <line id="Line_2-43" data-name="Line 2" class="cls-3" x2="1215" transform="translate(0.5 19.5)"/>
      </g>
      <g transform="translate(1234.5 400.5)">
        <line id="Line_2-44" data-name="Line 2" class="cls-3" x2="1215" transform="translate(0.5 19.5)"/>
      </g>
      <g transform="translate(-0.5 420.5)">
        <line id="Line_2-45" data-name="Line 2" class="cls-3" x2="1215" transform="translate(0.5 19.5)"/>
      </g>
      <g transform="translate(1234.5 420.5)">
        <line id="Line_2-46" data-name="Line 2" class="cls-3" x2="1215" transform="translate(0.5 19.5)"/>
      </g>
      <g transform="translate(-0.5 440.5)">
        <line id="Line_2-47" data-name="Line 2" class="cls-3" x2="1215" transform="translate(0.5 19.5)"/>
      </g>
      <g transform="translate(1234.5 440.5)">
        <line id="Line_2-48" data-name="Line 2" class="cls-3" x2="1215" transform="translate(0.5 19.5)"/>
      </g>
      <g transform="translate(-0.5 460.5)">
        <line id="Line_2-49" data-name="Line 2" class="cls-3" x2="1215" transform="translate(0.5 19.5)"/>
      </g>
      <g transform="translate(1234.5 460.5)">
        <line id="Line_2-50" data-name="Line 2" class="cls-3" x2="1215" transform="translate(0.5 19.5)"/>
      </g>
      <g transform="translate(-0.5 480.5)">
        <line id="Line_2-51" data-name="Line 2" class="cls-3" x2="1215" transform="translate(0.5 19.5)"/>
      </g>
      <g transform="translate(1234.5 480.5)">
        <line id="Line_2-52" data-name="Line 2" class="cls-3" x2="1215" transform="translate(0.5 19.5)"/>
      </g>
      <g transform="translate(-0.5 500.5)">
        <line id="Line_2-53" data-name="Line 2" class="cls-3" x2="1215" transform="translate(0.5 19.5)"/>
      </g>
      <g transform="translate(1234.5 500.5)">
        <line id="Line_2-54" data-name="Line 2" class="cls-3" x2="1215" transform="translate(0.5 19.5)"/>
      </g>
      <g transform="translate(-0.5 520.5)">
        <line id="Line_2-55" data-name="Line 2" class="cls-3" x2="1215" transform="translate(0.5 19.5)"/>
      </g>
      <g transform="translate(1234.5 520.5)">
        <line id="Line_2-56" data-name="Line 2" class="cls-3" x2="1215" transform="translate(0.5 19.5)"/>
      </g>
      <g transform="translate(-0.5 540.5)">
        <line id="Line_2-57" data-name="Line 2" class="cls-3" x2="1215" transform="translate(0.5 19.5)"/>
      </g>
      <g transform="translate(1234.5 540.5)">
        <line id="Line_2-58" data-name="Line 2" class="cls-3" x2="1215" transform="translate(0.5 19.5)"/>
      </g>
      <g transform="translate(-0.5 560.5)">
        <line id="Line_2-59" data-name="Line 2" class="cls-3" x2="1215" transform="translate(0.5 19.5)"/>
      </g>
      <g transform="translate(1234.5 560.5)">
        <line id="Line_2-60" data-name="Line 2" class="cls-3" x2="1215" transform="translate(0.5 19.5)"/>
      </g>
      <g transform="translate(-0.5 580.5)">
        <line id="Line_2-61" data-name="Line 2" class="cls-3" x2="1215" transform="translate(0.5 19.5)"/>
      </g>
      <g transform="translate(1234.5 580.5)">
        <line id="Line_2-62" data-name="Line 2" class="cls-3" x2="1215" transform="translate(0.5 19.5)"/>
      </g>
      <g transform="translate(-0.5 600.5)">
        <line id="Line_2-63" data-name="Line 2" class="cls-3" x2="1215" transform="translate(0.5 19.5)"/>
      </g>
      <g transform="translate(1234.5 600.5)">
        <line id="Line_2-64" data-name="Line 2" class="cls-3" x2="1215" transform="translate(0.5 19.5)"/>
      </g>
      <g transform="translate(-0.5 620.5)">
        <line id="Line_2-65" data-name="Line 2" class="cls-3" x2="1215" transform="translate(0.5 19.5)"/>
      </g>
      <g transform="translate(1234.5 620.5)">
        <line id="Line_2-66" data-name="Line 2" class="cls-3" x2="1215" transform="translate(0.5 19.5)"/>
      </g>
      <g transform="translate(-0.5 640.5)">
        <line id="Line_2-67" data-name="Line 2" class="cls-3" x2="1215" transform="translate(0.5 19.5)"/>
      </g>
      <g transform="translate(1234.5 640.5)">
        <line id="Line_2-68" data-name="Line 2" class="cls-3" x2="1215" transform="translate(0.5 19.5)"/>
      </g>
      <g transform="translate(-0.5 660.5)">
        <line id="Line_2-69" data-name="Line 2" class="cls-3" x2="1215" transform="translate(0.5 19.5)"/>
      </g>
      <g transform="translate(1234.5 660.5)">
        <line id="Line_2-70" data-name="Line 2" class="cls-3" x2="1215" transform="translate(0.5 19.5)"/>
      </g>
      <g transform="translate(-0.5 680.5)">
        <line id="Line_2-71" data-name="Line 2" class="cls-3" x2="1215" transform="translate(0.5 19.5)"/>
      </g>
      <g transform="translate(1234.5 680.5)">
        <line id="Line_2-72" data-name="Line 2" class="cls-3" x2="1215" transform="translate(0.5 19.5)"/>
      </g>
      <g transform="translate(-0.5 700.5)">
        <line id="Line_2-73" data-name="Line 2" class="cls-3" x2="1215" transform="translate(0.5 19.5)"/>
      </g>
      <g transform="translate(1234.5 700.5)">
        <line id="Line_2-74" data-name="Line 2" class="cls-3" x2="1215" transform="translate(0.5 19.5)"/>
      </g>
      <g transform="translate(-0.5 720.5)">
        <line id="Line_2-75" data-name="Line 2" class="cls-3" x2="1215" transform="translate(0.5 19.5)"/>
      </g>
      <g transform="translate(1234.5 720.5)">
        <line id="Line_2-76" data-name="Line 2" class="cls-3" x2="1215" transform="translate(0.5 19.5)"/>
      </g>
      <g transform="translate(-0.5 740.5)">
        <line id="Line_2-77" data-name="Line 2" class="cls-3" x2="1215" transform="translate(0.5 19.5)"/>
      </g>
      <g transform="translate(1234.5 740.5)">
        <line id="Line_2-78" data-name="Line 2" class="cls-3" x2="1215" transform="translate(0.5 19.5)"/>
      </g>
      <g transform="translate(-0.5 760.5)">
        <line id="Line_2-79" data-name="Line 2" class="cls-3" x2="1215" transform="translate(0.5 19.5)"/>
      </g>
      <g transform="translate(1234.5 760.5)">
        <line id="Line_2-80" data-name="Line 2" class="cls-3" x2="1215" transform="translate(0.5 19.5)"/>
      </g>
      <g transform="translate(-0.5 780.5)">
        <line id="Line_2-81" data-name="Line 2" class="cls-3" x2="1215" transform="translate(0.5 19.5)"/>
      </g>
      <g transform="translate(1234.5 780.5)">
        <line id="Line_2-82" data-name="Line 2" class="cls-3" x2="1215" transform="translate(0.5 19.5)"/>
      </g>
      <g transform="translate(-0.5 800.5)">
        <line id="Line_2-83" data-name="Line 2" class="cls-3" x2="1215" transform="translate(0.5 19.5)"/>
      </g>
      <g transform="translate(1234.5 800.5)">
        <line id="Line_2-84" data-name="Line 2" class="cls-3" x2="1215" transform="translate(0.5 19.5)"/>
      </g>
      <g transform="translate(-0.5 820.5)">
        <line id="Line_2-85" data-name="Line 2" class="cls-3" x2="1215" transform="translate(0.5 19.5)"/>
      </g>
      <g transform="translate(1234.5 820.5)">
        <line id="Line_2-86" data-name="Line 2" class="cls-3" x2="1215" transform="translate(0.5 19.5)"/>
      </g>
      <g transform="translate(-0.5 840.5)">
        <line id="Line_2-87" data-name="Line 2" class="cls-3" x2="1215" transform="translate(0.5 19.5)"/>
      </g>
      <g transform="translate(1234.5 840.5)">
        <line id="Line_2-88" data-name="Line 2" class="cls-3" x2="1215" transform="translate(0.5 19.5)"/>
      </g>
      <g transform="translate(-0.5 860.5)">
        <line id="Line_2-89" data-name="Line 2" class="cls-3" x2="1215" transform="translate(0.5 19.5)"/>
      </g>
      <g transform="translate(1234.5 860.5)">
        <line id="Line_2-90" data-name="Line 2" class="cls-3" x2="1215" transform="translate(0.5 19.5)"/>
      </g>
      <g transform="translate(-0.5 880.5)">
        <line id="Line_2-91" data-name="Line 2" class="cls-3" x2="1215" transform="translate(0.5 19.5)"/>
      </g>
      <g transform="translate(1234.5 880.5)">
        <line id="Line_2-92" data-name="Line 2" class="cls-3" x2="1215" transform="translate(0.5 19.5)"/>
      </g>
      <g transform="translate(-0.5 900.5)">
        <line id="Line_2-93" data-name="Line 2" class="cls-3" x2="1215" transform="translate(0.5 19.5)"/>
      </g>
      <g transform="translate(1234.5 900.5)">
        <line id="Line_2-94" data-name="Line 2" class="cls-3" x2="1215" transform="translate(0.5 19.5)"/>
      </g>
      <g transform="translate(-0.5 920.5)">
        <line id="Line_2-95" data-name="Line 2" class="cls-3" x2="1215" transform="translate(0.5 19.5)"/>
      </g>
      <g transform="translate(1234.5 920.5)">
        <line id="Line_2-96" data-name="Line 2" class="cls-3" x2="1215" transform="translate(0.5 19.5)"/>
      </g>
      <g transform="translate(-0.5 940.5)">
        <line id="Line_2-97" data-name="Line 2" class="cls-3" x2="1215" transform="translate(0.5 19.5)"/>
      </g>
      <g transform="translate(1234.5 940.5)">
        <line id="Line_2-98" data-name="Line 2" class="cls-3" x2="1215" transform="translate(0.5 19.5)"/>
      </g>
      <g transform="translate(-0.5 960.5)">
        <line id="Line_2-99" data-name="Line 2" class="cls-3" x2="1215" transform="translate(0.5 19.5)"/>
      </g>
      <g transform="translate(1234.5 960.5)">
        <line id="Line_2-100" data-name="Line 2" class="cls-3" x2="1215" transform="translate(0.5 19.5)"/>
      </g>
      <g transform="translate(-0.5 980.5)">
        <line id="Line_2-101" data-name="Line 2" class="cls-3" x2="1215" transform="translate(0.5 19.5)"/>
      </g>
      <g transform="translate(1234.5 980.5)">
        <line id="Line_2-102" data-name="Line 2" class="cls-3" x2="1215" transform="translate(0.5 19.5)"/>
      </g>
      <g transform="translate(-0.5 1000.5)">
        <line id="Line_2-103" data-name="Line 2" class="cls-3" x2="1215" transform="translate(0.5 19.5)"/>
      </g>
      <g transform="translate(1234.5 1000.5)">
        <line id="Line_2-104" data-name="Line 2" class="cls-3" x2="1215" transform="translate(0.5 19.5)"/>
      </g>
      <g transform="translate(-0.5 1020.5)">
        <line id="Line_2-105" data-name="Line 2" class="cls-3" x2="1215" transform="translate(0.5 19.5)"/>
      </g>
      <g transform="translate(1234.5 1020.5)">
        <line id="Line_2-106" data-name="Line 2" class="cls-3" x2="1215" transform="translate(0.5 19.5)"/>
      </g>
      <g transform="translate(-0.5 1040.5)">
        <line id="Line_2-107" data-name="Line 2" class="cls-3" x2="1215" transform="translate(0.5 19.5)"/>
      </g>
      <g transform="translate(1234.5 1040.5)">
        <line id="Line_2-108" data-name="Line 2" class="cls-3" x2="1215" transform="translate(0.5 19.5)"/>
      </g>
    </g>
  </g>
</svg>
