<svg xmlns="http://www.w3.org/2000/svg" xmlns:xlink="http://www.w3.org/1999/xlink" viewBox="1372.614 537.94 183.773 186.12">
  <defs>
    <style>
      .cls-1, .cls-3, .cls-4 {
        fill: none;
      }

      .cls-2 {
        clip-path: url(#clip-path);
      }

      .cls-3 {
        stroke: #0dd;
      }

      .cls-4 {
        stroke: rgba(249,181,255,0.79);
      }
    </style>
    <clipPath id="clip-path">
      <rect class="cls-1" width="124" height="109"/>
    </clipPath>
  </defs>
  <g id="Group_21" data-name="Group 21" transform="translate(-55 60)">
    <g id="Group_2" data-name="Group 2" transform="matrix(-0.799, 0.602, -0.602, -0.799, 3136.682, 208.827)">
      <g id="Repeat_Grid_4" data-name="Repeat Grid 4" class="cls-2" transform="translate(1432.5 633.5)">
        <g transform="translate(-1327.5 -509.5)">
          <line id="Line_3" data-name="Line 3" class="cls-3" y1="10" x2="31" transform="translate(1327.5 509.5)"/>
        </g>
        <g transform="translate(-1311.5 -509.5)">
          <line id="Line_3-2" data-name="Line 3" class="cls-3" y1="10" x2="31" transform="translate(1327.5 509.5)"/>
        </g>
        <g transform="translate(-1295.5 -509.5)">
          <line id="Line_3-3" data-name="Line 3" class="cls-3" y1="10" x2="31" transform="translate(1327.5 509.5)"/>
        </g>
        <g transform="translate(-1279.5 -509.5)">
          <line id="Line_3-4" data-name="Line 3" class="cls-3" y1="10" x2="31" transform="translate(1327.5 509.5)"/>
        </g>
        <g transform="translate(-1263.5 -509.5)">
          <line id="Line_3-5" data-name="Line 3" class="cls-3" y1="10" x2="31" transform="translate(1327.5 509.5)"/>
        </g>
        <g transform="translate(-1247.5 -509.5)">
          <line id="Line_3-6" data-name="Line 3" class="cls-3" y1="10" x2="31" transform="translate(1327.5 509.5)"/>
        </g>
        <g transform="translate(-1327.5 -501.5)">
          <line id="Line_3-7" data-name="Line 3" class="cls-3" y1="10" x2="31" transform="translate(1327.5 509.5)"/>
        </g>
        <g transform="translate(-1311.5 -501.5)">
          <line id="Line_3-8" data-name="Line 3" class="cls-3" y1="10" x2="31" transform="translate(1327.5 509.5)"/>
        </g>
        <g transform="translate(-1295.5 -501.5)">
          <line id="Line_3-9" data-name="Line 3" class="cls-3" y1="10" x2="31" transform="translate(1327.5 509.5)"/>
        </g>
        <g transform="translate(-1279.5 -501.5)">
          <line id="Line_3-10" data-name="Line 3" class="cls-3" y1="10" x2="31" transform="translate(1327.5 509.5)"/>
        </g>
        <g transform="translate(-1263.5 -501.5)">
          <line id="Line_3-11" data-name="Line 3" class="cls-3" y1="10" x2="31" transform="translate(1327.5 509.5)"/>
        </g>
        <g transform="translate(-1247.5 -501.5)">
          <line id="Line_3-12" data-name="Line 3" class="cls-3" y1="10" x2="31" transform="translate(1327.5 509.5)"/>
        </g>
        <g transform="translate(-1327.5 -493.5)">
          <line id="Line_3-13" data-name="Line 3" class="cls-3" y1="10" x2="31" transform="translate(1327.5 509.5)"/>
        </g>
        <g transform="translate(-1311.5 -493.5)">
          <line id="Line_3-14" data-name="Line 3" class="cls-3" y1="10" x2="31" transform="translate(1327.5 509.5)"/>
        </g>
        <g transform="translate(-1295.5 -493.5)">
          <line id="Line_3-15" data-name="Line 3" class="cls-3" y1="10" x2="31" transform="translate(1327.5 509.5)"/>
        </g>
        <g transform="translate(-1279.5 -493.5)">
          <line id="Line_3-16" data-name="Line 3" class="cls-3" y1="10" x2="31" transform="translate(1327.5 509.5)"/>
        </g>
        <g transform="translate(-1263.5 -493.5)">
          <line id="Line_3-17" data-name="Line 3" class="cls-3" y1="10" x2="31" transform="translate(1327.5 509.5)"/>
        </g>
        <g transform="translate(-1247.5 -493.5)">
          <line id="Line_3-18" data-name="Line 3" class="cls-3" y1="10" x2="31" transform="translate(1327.5 509.5)"/>
        </g>
        <g transform="translate(-1327.5 -485.5)">
          <line id="Line_3-19" data-name="Line 3" class="cls-3" y1="10" x2="31" transform="translate(1327.5 509.5)"/>
        </g>
        <g transform="translate(-1311.5 -485.5)">
          <line id="Line_3-20" data-name="Line 3" class="cls-3" y1="10" x2="31" transform="translate(1327.5 509.5)"/>
        </g>
        <g transform="translate(-1295.5 -485.5)">
          <line id="Line_3-21" data-name="Line 3" class="cls-3" y1="10" x2="31" transform="translate(1327.5 509.5)"/>
        </g>
        <g transform="translate(-1279.5 -485.5)">
          <line id="Line_3-22" data-name="Line 3" class="cls-3" y1="10" x2="31" transform="translate(1327.5 509.5)"/>
        </g>
        <g transform="translate(-1263.5 -485.5)">
          <line id="Line_3-23" data-name="Line 3" class="cls-3" y1="10" x2="31" transform="translate(1327.5 509.5)"/>
        </g>
        <g transform="translate(-1247.5 -485.5)">
          <line id="Line_3-24" data-name="Line 3" class="cls-3" y1="10" x2="31" transform="translate(1327.5 509.5)"/>
        </g>
        <g transform="translate(-1327.5 -477.5)">
          <line id="Line_3-25" data-name="Line 3" class="cls-3" y1="10" x2="31" transform="translate(1327.5 509.5)"/>
        </g>
        <g transform="translate(-1311.5 -477.5)">
          <line id="Line_3-26" data-name="Line 3" class="cls-3" y1="10" x2="31" transform="translate(1327.5 509.5)"/>
        </g>
        <g transform="translate(-1295.5 -477.5)">
          <line id="Line_3-27" data-name="Line 3" class="cls-3" y1="10" x2="31" transform="translate(1327.5 509.5)"/>
        </g>
        <g transform="translate(-1279.5 -477.5)">
          <line id="Line_3-28" data-name="Line 3" class="cls-3" y1="10" x2="31" transform="translate(1327.5 509.5)"/>
        </g>
        <g transform="translate(-1263.5 -477.5)">
          <line id="Line_3-29" data-name="Line 3" class="cls-3" y1="10" x2="31" transform="translate(1327.5 509.5)"/>
        </g>
        <g transform="translate(-1247.5 -477.5)">
          <line id="Line_3-30" data-name="Line 3" class="cls-3" y1="10" x2="31" transform="translate(1327.5 509.5)"/>
        </g>
        <g transform="translate(-1327.5 -469.5)">
          <line id="Line_3-31" data-name="Line 3" class="cls-3" y1="10" x2="31" transform="translate(1327.5 509.5)"/>
        </g>
        <g transform="translate(-1311.5 -469.5)">
          <line id="Line_3-32" data-name="Line 3" class="cls-3" y1="10" x2="31" transform="translate(1327.5 509.5)"/>
        </g>
        <g transform="translate(-1295.5 -469.5)">
          <line id="Line_3-33" data-name="Line 3" class="cls-3" y1="10" x2="31" transform="translate(1327.5 509.5)"/>
        </g>
        <g transform="translate(-1279.5 -469.5)">
          <line id="Line_3-34" data-name="Line 3" class="cls-3" y1="10" x2="31" transform="translate(1327.5 509.5)"/>
        </g>
        <g transform="translate(-1263.5 -469.5)">
          <line id="Line_3-35" data-name="Line 3" class="cls-3" y1="10" x2="31" transform="translate(1327.5 509.5)"/>
        </g>
        <g transform="translate(-1247.5 -469.5)">
          <line id="Line_3-36" data-name="Line 3" class="cls-3" y1="10" x2="31" transform="translate(1327.5 509.5)"/>
        </g>
        <g transform="translate(-1327.5 -461.5)">
          <line id="Line_3-37" data-name="Line 3" class="cls-3" y1="10" x2="31" transform="translate(1327.5 509.5)"/>
        </g>
        <g transform="translate(-1311.5 -461.5)">
          <line id="Line_3-38" data-name="Line 3" class="cls-3" y1="10" x2="31" transform="translate(1327.5 509.5)"/>
        </g>
        <g transform="translate(-1295.5 -461.5)">
          <line id="Line_3-39" data-name="Line 3" class="cls-3" y1="10" x2="31" transform="translate(1327.5 509.5)"/>
        </g>
        <g transform="translate(-1279.5 -461.5)">
          <line id="Line_3-40" data-name="Line 3" class="cls-3" y1="10" x2="31" transform="translate(1327.5 509.5)"/>
        </g>
        <g transform="translate(-1263.5 -461.5)">
          <line id="Line_3-41" data-name="Line 3" class="cls-3" y1="10" x2="31" transform="translate(1327.5 509.5)"/>
        </g>
        <g transform="translate(-1247.5 -461.5)">
          <line id="Line_3-42" data-name="Line 3" class="cls-3" y1="10" x2="31" transform="translate(1327.5 509.5)"/>
        </g>
        <g transform="translate(-1327.5 -453.5)">
          <line id="Line_3-43" data-name="Line 3" class="cls-3" y1="10" x2="31" transform="translate(1327.5 509.5)"/>
        </g>
        <g transform="translate(-1311.5 -453.5)">
          <line id="Line_3-44" data-name="Line 3" class="cls-3" y1="10" x2="31" transform="translate(1327.5 509.5)"/>
        </g>
        <g transform="translate(-1295.5 -453.5)">
          <line id="Line_3-45" data-name="Line 3" class="cls-3" y1="10" x2="31" transform="translate(1327.5 509.5)"/>
        </g>
        <g transform="translate(-1279.5 -453.5)">
          <line id="Line_3-46" data-name="Line 3" class="cls-3" y1="10" x2="31" transform="translate(1327.5 509.5)"/>
        </g>
        <g transform="translate(-1263.5 -453.5)">
          <line id="Line_3-47" data-name="Line 3" class="cls-3" y1="10" x2="31" transform="translate(1327.5 509.5)"/>
        </g>
        <g transform="translate(-1247.5 -453.5)">
          <line id="Line_3-48" data-name="Line 3" class="cls-3" y1="10" x2="31" transform="translate(1327.5 509.5)"/>
        </g>
        <g transform="translate(-1327.5 -445.5)">
          <line id="Line_3-49" data-name="Line 3" class="cls-3" y1="10" x2="31" transform="translate(1327.5 509.5)"/>
        </g>
        <g transform="translate(-1311.5 -445.5)">
          <line id="Line_3-50" data-name="Line 3" class="cls-3" y1="10" x2="31" transform="translate(1327.5 509.5)"/>
        </g>
        <g transform="translate(-1295.5 -445.5)">
          <line id="Line_3-51" data-name="Line 3" class="cls-3" y1="10" x2="31" transform="translate(1327.5 509.5)"/>
        </g>
        <g transform="translate(-1279.5 -445.5)">
          <line id="Line_3-52" data-name="Line 3" class="cls-3" y1="10" x2="31" transform="translate(1327.5 509.5)"/>
        </g>
        <g transform="translate(-1263.5 -445.5)">
          <line id="Line_3-53" data-name="Line 3" class="cls-3" y1="10" x2="31" transform="translate(1327.5 509.5)"/>
        </g>
        <g transform="translate(-1247.5 -445.5)">
          <line id="Line_3-54" data-name="Line 3" class="cls-3" y1="10" x2="31" transform="translate(1327.5 509.5)"/>
        </g>
        <g transform="translate(-1327.5 -437.5)">
          <line id="Line_3-55" data-name="Line 3" class="cls-3" y1="10" x2="31" transform="translate(1327.5 509.5)"/>
        </g>
        <g transform="translate(-1311.5 -437.5)">
          <line id="Line_3-56" data-name="Line 3" class="cls-3" y1="10" x2="31" transform="translate(1327.5 509.5)"/>
        </g>
        <g transform="translate(-1295.5 -437.5)">
          <line id="Line_3-57" data-name="Line 3" class="cls-3" y1="10" x2="31" transform="translate(1327.5 509.5)"/>
        </g>
        <g transform="translate(-1279.5 -437.5)">
          <line id="Line_3-58" data-name="Line 3" class="cls-3" y1="10" x2="31" transform="translate(1327.5 509.5)"/>
        </g>
        <g transform="translate(-1263.5 -437.5)">
          <line id="Line_3-59" data-name="Line 3" class="cls-3" y1="10" x2="31" transform="translate(1327.5 509.5)"/>
        </g>
        <g transform="translate(-1247.5 -437.5)">
          <line id="Line_3-60" data-name="Line 3" class="cls-3" y1="10" x2="31" transform="translate(1327.5 509.5)"/>
        </g>
        <g transform="translate(-1327.5 -429.5)">
          <line id="Line_3-61" data-name="Line 3" class="cls-3" y1="10" x2="31" transform="translate(1327.5 509.5)"/>
        </g>
        <g transform="translate(-1311.5 -429.5)">
          <line id="Line_3-62" data-name="Line 3" class="cls-3" y1="10" x2="31" transform="translate(1327.5 509.5)"/>
        </g>
        <g transform="translate(-1295.5 -429.5)">
          <line id="Line_3-63" data-name="Line 3" class="cls-3" y1="10" x2="31" transform="translate(1327.5 509.5)"/>
        </g>
        <g transform="translate(-1279.5 -429.5)">
          <line id="Line_3-64" data-name="Line 3" class="cls-3" y1="10" x2="31" transform="translate(1327.5 509.5)"/>
        </g>
        <g transform="translate(-1263.5 -429.5)">
          <line id="Line_3-65" data-name="Line 3" class="cls-3" y1="10" x2="31" transform="translate(1327.5 509.5)"/>
        </g>
        <g transform="translate(-1247.5 -429.5)">
          <line id="Line_3-66" data-name="Line 3" class="cls-3" y1="10" x2="31" transform="translate(1327.5 509.5)"/>
        </g>
        <g transform="translate(-1327.5 -421.5)">
          <line id="Line_3-67" data-name="Line 3" class="cls-3" y1="10" x2="31" transform="translate(1327.5 509.5)"/>
        </g>
        <g transform="translate(-1311.5 -421.5)">
          <line id="Line_3-68" data-name="Line 3" class="cls-3" y1="10" x2="31" transform="translate(1327.5 509.5)"/>
        </g>
        <g transform="translate(-1295.5 -421.5)">
          <line id="Line_3-69" data-name="Line 3" class="cls-3" y1="10" x2="31" transform="translate(1327.5 509.5)"/>
        </g>
        <g transform="translate(-1279.5 -421.5)">
          <line id="Line_3-70" data-name="Line 3" class="cls-3" y1="10" x2="31" transform="translate(1327.5 509.5)"/>
        </g>
        <g transform="translate(-1263.5 -421.5)">
          <line id="Line_3-71" data-name="Line 3" class="cls-3" y1="10" x2="31" transform="translate(1327.5 509.5)"/>
        </g>
        <g transform="translate(-1247.5 -421.5)">
          <line id="Line_3-72" data-name="Line 3" class="cls-3" y1="10" x2="31" transform="translate(1327.5 509.5)"/>
        </g>
      </g>
      <g id="Repeat_Grid_5" data-name="Repeat Grid 5" class="cls-2" transform="translate(1462.5 625.5)">
        <g transform="translate(-1327.5 -509.5)">
          <line id="Line_3-73" data-name="Line 3" class="cls-4" y1="10" x2="31" transform="translate(1327.5 509.5)"/>
        </g>
        <g transform="translate(-1311.5 -509.5)">
          <line id="Line_3-74" data-name="Line 3" class="cls-4" y1="10" x2="31" transform="translate(1327.5 509.5)"/>
        </g>
        <g transform="translate(-1295.5 -509.5)">
          <line id="Line_3-75" data-name="Line 3" class="cls-4" y1="10" x2="31" transform="translate(1327.5 509.5)"/>
        </g>
        <g transform="translate(-1279.5 -509.5)">
          <line id="Line_3-76" data-name="Line 3" class="cls-4" y1="10" x2="31" transform="translate(1327.5 509.5)"/>
        </g>
        <g transform="translate(-1263.5 -509.5)">
          <line id="Line_3-77" data-name="Line 3" class="cls-4" y1="10" x2="31" transform="translate(1327.5 509.5)"/>
        </g>
        <g transform="translate(-1247.5 -509.5)">
          <line id="Line_3-78" data-name="Line 3" class="cls-4" y1="10" x2="31" transform="translate(1327.5 509.5)"/>
        </g>
        <g transform="translate(-1327.5 -501.5)">
          <line id="Line_3-79" data-name="Line 3" class="cls-4" y1="10" x2="31" transform="translate(1327.5 509.5)"/>
        </g>
        <g transform="translate(-1311.5 -501.5)">
          <line id="Line_3-80" data-name="Line 3" class="cls-4" y1="10" x2="31" transform="translate(1327.5 509.5)"/>
        </g>
        <g transform="translate(-1295.5 -501.5)">
          <line id="Line_3-81" data-name="Line 3" class="cls-4" y1="10" x2="31" transform="translate(1327.5 509.5)"/>
        </g>
        <g transform="translate(-1279.5 -501.5)">
          <line id="Line_3-82" data-name="Line 3" class="cls-4" y1="10" x2="31" transform="translate(1327.5 509.5)"/>
        </g>
        <g transform="translate(-1263.5 -501.5)">
          <line id="Line_3-83" data-name="Line 3" class="cls-4" y1="10" x2="31" transform="translate(1327.5 509.5)"/>
        </g>
        <g transform="translate(-1247.5 -501.5)">
          <line id="Line_3-84" data-name="Line 3" class="cls-4" y1="10" x2="31" transform="translate(1327.5 509.5)"/>
        </g>
        <g transform="translate(-1327.5 -493.5)">
          <line id="Line_3-85" data-name="Line 3" class="cls-4" y1="10" x2="31" transform="translate(1327.5 509.5)"/>
        </g>
        <g transform="translate(-1311.5 -493.5)">
          <line id="Line_3-86" data-name="Line 3" class="cls-4" y1="10" x2="31" transform="translate(1327.5 509.5)"/>
        </g>
        <g transform="translate(-1295.5 -493.5)">
          <line id="Line_3-87" data-name="Line 3" class="cls-4" y1="10" x2="31" transform="translate(1327.5 509.5)"/>
        </g>
        <g transform="translate(-1279.5 -493.5)">
          <line id="Line_3-88" data-name="Line 3" class="cls-4" y1="10" x2="31" transform="translate(1327.5 509.5)"/>
        </g>
        <g transform="translate(-1263.5 -493.5)">
          <line id="Line_3-89" data-name="Line 3" class="cls-4" y1="10" x2="31" transform="translate(1327.5 509.5)"/>
        </g>
        <g transform="translate(-1247.5 -493.5)">
          <line id="Line_3-90" data-name="Line 3" class="cls-4" y1="10" x2="31" transform="translate(1327.5 509.5)"/>
        </g>
        <g transform="translate(-1327.5 -485.5)">
          <line id="Line_3-91" data-name="Line 3" class="cls-4" y1="10" x2="31" transform="translate(1327.5 509.5)"/>
        </g>
        <g transform="translate(-1311.5 -485.5)">
          <line id="Line_3-92" data-name="Line 3" class="cls-4" y1="10" x2="31" transform="translate(1327.5 509.5)"/>
        </g>
        <g transform="translate(-1295.5 -485.5)">
          <line id="Line_3-93" data-name="Line 3" class="cls-4" y1="10" x2="31" transform="translate(1327.5 509.5)"/>
        </g>
        <g transform="translate(-1279.5 -485.5)">
          <line id="Line_3-94" data-name="Line 3" class="cls-4" y1="10" x2="31" transform="translate(1327.5 509.5)"/>
        </g>
        <g transform="translate(-1263.5 -485.5)">
          <line id="Line_3-95" data-name="Line 3" class="cls-4" y1="10" x2="31" transform="translate(1327.5 509.5)"/>
        </g>
        <g transform="translate(-1247.5 -485.5)">
          <line id="Line_3-96" data-name="Line 3" class="cls-4" y1="10" x2="31" transform="translate(1327.5 509.5)"/>
        </g>
        <g transform="translate(-1327.5 -477.5)">
          <line id="Line_3-97" data-name="Line 3" class="cls-4" y1="10" x2="31" transform="translate(1327.5 509.5)"/>
        </g>
        <g transform="translate(-1311.5 -477.5)">
          <line id="Line_3-98" data-name="Line 3" class="cls-4" y1="10" x2="31" transform="translate(1327.5 509.5)"/>
        </g>
        <g transform="translate(-1295.5 -477.5)">
          <line id="Line_3-99" data-name="Line 3" class="cls-4" y1="10" x2="31" transform="translate(1327.5 509.5)"/>
        </g>
        <g transform="translate(-1279.5 -477.5)">
          <line id="Line_3-100" data-name="Line 3" class="cls-4" y1="10" x2="31" transform="translate(1327.5 509.5)"/>
        </g>
        <g transform="translate(-1263.5 -477.5)">
          <line id="Line_3-101" data-name="Line 3" class="cls-4" y1="10" x2="31" transform="translate(1327.5 509.5)"/>
        </g>
        <g transform="translate(-1247.5 -477.5)">
          <line id="Line_3-102" data-name="Line 3" class="cls-4" y1="10" x2="31" transform="translate(1327.5 509.5)"/>
        </g>
        <g transform="translate(-1327.5 -469.5)">
          <line id="Line_3-103" data-name="Line 3" class="cls-4" y1="10" x2="31" transform="translate(1327.5 509.5)"/>
        </g>
        <g transform="translate(-1311.5 -469.5)">
          <line id="Line_3-104" data-name="Line 3" class="cls-4" y1="10" x2="31" transform="translate(1327.5 509.5)"/>
        </g>
        <g transform="translate(-1295.5 -469.5)">
          <line id="Line_3-105" data-name="Line 3" class="cls-4" y1="10" x2="31" transform="translate(1327.5 509.5)"/>
        </g>
        <g transform="translate(-1279.5 -469.5)">
          <line id="Line_3-106" data-name="Line 3" class="cls-4" y1="10" x2="31" transform="translate(1327.5 509.5)"/>
        </g>
        <g transform="translate(-1263.5 -469.5)">
          <line id="Line_3-107" data-name="Line 3" class="cls-4" y1="10" x2="31" transform="translate(1327.5 509.5)"/>
        </g>
        <g transform="translate(-1247.5 -469.5)">
          <line id="Line_3-108" data-name="Line 3" class="cls-4" y1="10" x2="31" transform="translate(1327.5 509.5)"/>
        </g>
        <g transform="translate(-1327.5 -461.5)">
          <line id="Line_3-109" data-name="Line 3" class="cls-4" y1="10" x2="31" transform="translate(1327.5 509.5)"/>
        </g>
        <g transform="translate(-1311.5 -461.5)">
          <line id="Line_3-110" data-name="Line 3" class="cls-4" y1="10" x2="31" transform="translate(1327.5 509.5)"/>
        </g>
        <g transform="translate(-1295.5 -461.5)">
          <line id="Line_3-111" data-name="Line 3" class="cls-4" y1="10" x2="31" transform="translate(1327.5 509.5)"/>
        </g>
        <g transform="translate(-1279.5 -461.5)">
          <line id="Line_3-112" data-name="Line 3" class="cls-4" y1="10" x2="31" transform="translate(1327.5 509.5)"/>
        </g>
        <g transform="translate(-1263.5 -461.5)">
          <line id="Line_3-113" data-name="Line 3" class="cls-4" y1="10" x2="31" transform="translate(1327.5 509.5)"/>
        </g>
        <g transform="translate(-1247.5 -461.5)">
          <line id="Line_3-114" data-name="Line 3" class="cls-4" y1="10" x2="31" transform="translate(1327.5 509.5)"/>
        </g>
        <g transform="translate(-1327.5 -453.5)">
          <line id="Line_3-115" data-name="Line 3" class="cls-4" y1="10" x2="31" transform="translate(1327.5 509.5)"/>
        </g>
        <g transform="translate(-1311.5 -453.5)">
          <line id="Line_3-116" data-name="Line 3" class="cls-4" y1="10" x2="31" transform="translate(1327.5 509.5)"/>
        </g>
        <g transform="translate(-1295.5 -453.5)">
          <line id="Line_3-117" data-name="Line 3" class="cls-4" y1="10" x2="31" transform="translate(1327.5 509.5)"/>
        </g>
        <g transform="translate(-1279.5 -453.5)">
          <line id="Line_3-118" data-name="Line 3" class="cls-4" y1="10" x2="31" transform="translate(1327.5 509.5)"/>
        </g>
        <g transform="translate(-1263.5 -453.5)">
          <line id="Line_3-119" data-name="Line 3" class="cls-4" y1="10" x2="31" transform="translate(1327.5 509.5)"/>
        </g>
        <g transform="translate(-1247.5 -453.5)">
          <line id="Line_3-120" data-name="Line 3" class="cls-4" y1="10" x2="31" transform="translate(1327.5 509.5)"/>
        </g>
        <g transform="translate(-1327.5 -445.5)">
          <line id="Line_3-121" data-name="Line 3" class="cls-4" y1="10" x2="31" transform="translate(1327.5 509.5)"/>
        </g>
        <g transform="translate(-1311.5 -445.5)">
          <line id="Line_3-122" data-name="Line 3" class="cls-4" y1="10" x2="31" transform="translate(1327.5 509.5)"/>
        </g>
        <g transform="translate(-1295.5 -445.5)">
          <line id="Line_3-123" data-name="Line 3" class="cls-4" y1="10" x2="31" transform="translate(1327.5 509.5)"/>
        </g>
        <g transform="translate(-1279.5 -445.5)">
          <line id="Line_3-124" data-name="Line 3" class="cls-4" y1="10" x2="31" transform="translate(1327.5 509.5)"/>
        </g>
        <g transform="translate(-1263.5 -445.5)">
          <line id="Line_3-125" data-name="Line 3" class="cls-4" y1="10" x2="31" transform="translate(1327.5 509.5)"/>
        </g>
        <g transform="translate(-1247.5 -445.5)">
          <line id="Line_3-126" data-name="Line 3" class="cls-4" y1="10" x2="31" transform="translate(1327.5 509.5)"/>
        </g>
        <g transform="translate(-1327.5 -437.5)">
          <line id="Line_3-127" data-name="Line 3" class="cls-4" y1="10" x2="31" transform="translate(1327.5 509.5)"/>
        </g>
        <g transform="translate(-1311.5 -437.5)">
          <line id="Line_3-128" data-name="Line 3" class="cls-4" y1="10" x2="31" transform="translate(1327.5 509.5)"/>
        </g>
        <g transform="translate(-1295.5 -437.5)">
          <line id="Line_3-129" data-name="Line 3" class="cls-4" y1="10" x2="31" transform="translate(1327.5 509.5)"/>
        </g>
        <g transform="translate(-1279.5 -437.5)">
          <line id="Line_3-130" data-name="Line 3" class="cls-4" y1="10" x2="31" transform="translate(1327.5 509.5)"/>
        </g>
        <g transform="translate(-1263.5 -437.5)">
          <line id="Line_3-131" data-name="Line 3" class="cls-4" y1="10" x2="31" transform="translate(1327.5 509.5)"/>
        </g>
        <g transform="translate(-1247.5 -437.5)">
          <line id="Line_3-132" data-name="Line 3" class="cls-4" y1="10" x2="31" transform="translate(1327.5 509.5)"/>
        </g>
        <g transform="translate(-1327.5 -429.5)">
          <line id="Line_3-133" data-name="Line 3" class="cls-4" y1="10" x2="31" transform="translate(1327.5 509.5)"/>
        </g>
        <g transform="translate(-1311.5 -429.5)">
          <line id="Line_3-134" data-name="Line 3" class="cls-4" y1="10" x2="31" transform="translate(1327.5 509.5)"/>
        </g>
        <g transform="translate(-1295.5 -429.5)">
          <line id="Line_3-135" data-name="Line 3" class="cls-4" y1="10" x2="31" transform="translate(1327.5 509.5)"/>
        </g>
        <g transform="translate(-1279.5 -429.5)">
          <line id="Line_3-136" data-name="Line 3" class="cls-4" y1="10" x2="31" transform="translate(1327.5 509.5)"/>
        </g>
        <g transform="translate(-1263.5 -429.5)">
          <line id="Line_3-137" data-name="Line 3" class="cls-4" y1="10" x2="31" transform="translate(1327.5 509.5)"/>
        </g>
        <g transform="translate(-1247.5 -429.5)">
          <line id="Line_3-138" data-name="Line 3" class="cls-4" y1="10" x2="31" transform="translate(1327.5 509.5)"/>
        </g>
        <g transform="translate(-1327.5 -421.5)">
          <line id="Line_3-139" data-name="Line 3" class="cls-4" y1="10" x2="31" transform="translate(1327.5 509.5)"/>
        </g>
        <g transform="translate(-1311.5 -421.5)">
          <line id="Line_3-140" data-name="Line 3" class="cls-4" y1="10" x2="31" transform="translate(1327.5 509.5)"/>
        </g>
        <g transform="translate(-1295.5 -421.5)">
          <line id="Line_3-141" data-name="Line 3" class="cls-4" y1="10" x2="31" transform="translate(1327.5 509.5)"/>
        </g>
        <g transform="translate(-1279.5 -421.5)">
          <line id="Line_3-142" data-name="Line 3" class="cls-4" y1="10" x2="31" transform="translate(1327.5 509.5)"/>
        </g>
        <g transform="translate(-1263.5 -421.5)">
          <line id="Line_3-143" data-name="Line 3" class="cls-4" y1="10" x2="31" transform="translate(1327.5 509.5)"/>
        </g>
        <g transform="translate(-1247.5 -421.5)">
          <line id="Line_3-144" data-name="Line 3" class="cls-4" y1="10" x2="31" transform="translate(1327.5 509.5)"/>
        </g>
      </g>
    </g>
  </g>
</svg>
